<?xml version="1.0" encoding="utf-8" ?><svg xmlns="http://www.w3.org/2000/svg" xmlns:xlink="http://www.w3.org/1999/xlink" width="512" height="512" viewBox="0 0 512 512"><path fill="#232021" d="M132.738 72.1049C136.266 71.878 139.911 72.0586 143.417 72.4906C154.88 73.9032 164.235 78.8995 171.359 87.9795C183.377 87.7362 195.443 87.9443 207.466 87.9434L276.835 87.9395L434.56 88.001C431.46 92.8435 428.827 98.1768 426.024 103.208L409.345 133.131L385.664 175.655C381.162 183.729 376.488 191.746 372.207 199.938C374.702 205.307 379.281 212.003 382.45 217.274L402.9 251.326L423.841 286.24C427.241 291.916 430.81 298.835 434.719 304.039L323.625 304.09L223.885 304.087L192.077 304.091C186.768 304.094 181.339 304.393 176.046 304.072L176.07 377.309L176.071 397.953C176.071 403.015 176.361 408.287 175.519 413.291C174.685 418.25 172.526 422.675 169.314 426.536C162.433 434.809 151.753 438.836 141.27 439.77C129.111 440.853 115.964 438.345 106.46 430.267C100.474 425.179 96.6808 418.279 96.1209 410.413C95.627 403.473 95.9508 396.322 95.9541 389.357L95.9561 352.406L95.9576 236.05L95.9516 144.969L95.9518 116.901C95.9522 111.487 95.6629 105.882 96.2285 100.498C96.8421 94.6574 99.3195 89.3277 103.169 84.9042C110.606 76.3592 121.747 72.8182 132.738 72.1049Z"/><path fill="#F14039" d="M152.009 111.998L168.086 111.966L392.068 111.997C392.067 114.079 392.478 118.404 391.763 120.236C386.693 129.683 380.741 138.827 375.22 148.026L343.99 200.049C360.326 226.502 375.741 253.529 392.078 279.98L230.917 280.016C210.123 280.016 189.291 279.74 168.501 280.023L152.035 280.019L151.992 120.163L152.009 111.998Z"/><path fill="#C93E3D" d="M151.992 120.163C157.274 119.805 162.691 119.951 167.986 120.01L167.967 226.656L167.969 261.563C167.97 267.357 167.668 273.341 168.023 279.116C168.042 279.425 168.117 279.664 168.339 279.892C168.387 279.942 168.447 279.98 168.501 280.023L152.035 280.019L151.992 120.163Z"/><path fill="#F06060" d="M168.086 111.966L392.068 111.997C392.067 114.079 392.478 118.404 391.763 120.236C382.96 119.543 373.877 119.992 365.037 119.992L316.396 119.99L168.006 120.021C167.992 117.334 167.959 114.651 168.086 111.966Z"/><path fill="#BEBEBE" d="M119.988 105.714C120.341 106.087 120.695 106.457 121.043 106.834C124.709 110.811 130.675 111.877 135.83 112.007C135.894 112.009 135.959 112.008 136.023 112.009C137.384 111.678 138.932 111.785 140.337 111.591C145.172 110.922 148.111 109.113 152.013 106.354L152.009 111.998L151.992 120.163L152.035 280.019L152.018 367.62L152.021 394.626C152.023 399.59 152.216 404.623 151.952 409.575C149.844 412.935 146.493 414.563 142.727 415.421C140.01 416.041 136.399 416.398 133.659 415.777C129.836 415.779 124.462 414.362 121.713 411.574C120.435 410.277 120.156 408.973 120.043 407.204C119.799 403.377 119.971 399.443 119.971 395.605L119.975 374.607L119.987 309.387L119.988 105.714Z"/><path fill="#D3D3D3" d="M119.988 105.714C120.341 106.087 120.695 106.457 121.043 106.834C124.709 110.811 130.675 111.877 135.83 112.007C135.894 112.009 135.959 112.008 136.023 112.009L135.98 330.824L135.985 390.695L136.015 407.394C136.034 409.995 136.366 412.968 136 415.516C135.203 415.696 134.475 415.753 133.659 415.777C129.836 415.779 124.462 414.362 121.713 411.574C120.435 410.277 120.156 408.973 120.043 407.204C119.799 403.377 119.971 399.443 119.971 395.605L119.975 374.607L119.987 309.387L119.988 105.714Z"/><path fill="#A9A9AB" d="M119.988 105.714C119.966 103.513 120.23 102.107 121.8 100.45C125.078 96.9904 131.216 96.0969 135.739 96.0665C140.363 96.0355 146.45 96.8187 149.941 100.188C151.641 101.828 152.051 103.486 152.027 105.773C152.024 105.966 152.02 106.16 152.013 106.354C148.111 109.113 145.172 110.922 140.337 111.591C138.932 111.785 137.384 111.678 136.023 112.009C135.959 112.008 135.894 112.009 135.83 112.007C130.675 111.877 124.709 110.811 121.043 106.834C120.695 106.457 120.341 106.087 119.988 105.714Z"/></svg>