<?xml version="1.0" encoding="utf-8" ?><svg xmlns="http://www.w3.org/2000/svg" xmlns:xlink="http://www.w3.org/1999/xlink" width="1076" height="1080" viewBox="0 0 1076 1080"><path d="M482.711 11.2484C487.28 10.6101 491.555 8.5636 496.079 8.07669C506.391 6.96659 517.295 7.71432 527.677 7.63334C541.131 7.52839 554.961 6.58109 568.359 7.9816C573.765 8.54665 578.701 10.555 583.991 11.2623C584.134 11.2814 584.278 11.2966 584.421 11.3137C587.654 14.388 592.183 16.8355 594.085 20.9896C599.756 33.3805 600.069 51.0702 601.407 64.6998L606.586 123.066C607.193 129.402 608.947 135.387 609.706 141.613C617.65 145.302 625.68 145.852 634.054 147.951C648.468 151.476 662.704 155.686 676.717 160.566C695.913 167.345 714.49 175.764 732.242 185.73C743.259 191.878 753.64 198.741 764.904 204.478C775.872 200.602 785.257 191.312 794.274 184.166C797.801 181.371 801.552 178.869 805.007 175.981C807.956 173.518 811.746 168.554 815.29 167.356C816.33 167.005 817.257 166.856 818.239 166.288C822.122 164.042 826.002 159.411 829.62 156.494C832.739 153.978 836.12 151.794 839.263 149.305C845.477 144.384 851.454 139.391 857.795 134.627C863.454 133.684 869.144 132.515 874.884 133.471C877.746 133.947 880.178 134.604 882.601 136.258C893.759 143.876 903.111 155.608 912.541 165.253C918.261 171.105 925.251 177.087 930.034 183.682C930.252 184.85 930.118 185.009 930.983 185.898C937.352 192.445 943.725 200.284 943.979 209.708C944.066 212.959 943.878 216.071 945.235 219.109C942.552 227.972 931.3 238.612 925.159 245.962C916.717 256.067 908.997 266.786 900.578 276.898C894.058 284.727 887.543 292.455 881.161 300.404C878.671 303.505 875.821 306.449 873.886 309.938C874.182 312.117 874.376 314.592 875.246 316.623C877.379 321.6 880.854 326.168 883.634 330.819C889.011 339.818 894.118 348.908 899.065 358.149C901.018 361.798 903.207 365.28 904.895 369.071C918.852 400.116 929.136 432.685 935.537 466.115L938.77 468.97L939.543 469.129C946.763 470.585 954.224 470.405 961.531 471.156C975.38 472.577 989.245 474.982 1003.08 476.617C1024.13 479.103 1043.98 477.268 1062.46 489.462C1065.16 491.242 1068.71 502.768 1069.28 506.211C1070.16 511.475 1069.72 517.256 1069.68 522.582L1069.53 549.87C1069.49 560.012 1070.67 571.479 1069.14 581.415C1068.25 587.252 1066.1 594.001 1062.55 598.767C1057.54 605.468 1049.64 608.387 1041.62 609.388C1032.18 610.567 1022.51 610.588 1013.02 611.56C1002.58 612.602 992.154 613.728 981.737 614.937C976.312 615.603 970.909 616.598 965.466 617.1C957.462 617.838 949.06 617.322 941.159 618.657C939.169 618.994 937.257 619.375 935.684 620.711C930.672 631.235 929.712 643.7 926.539 654.922C918.307 684.038 907.658 713.019 892.182 739.122C889.731 743.257 887.442 747.503 884.883 751.572C881.716 756.61 872.185 766.875 873.244 773.014C873.876 776.68 909.373 821.265 914.525 828.157C917.278 831.839 919.63 835.813 922.428 839.464C929.725 848.985 942.497 862.368 945.994 873.641C947.517 878.551 946.569 887.105 944.459 891.738C943.441 893.931 942.099 895.958 940.478 897.752C931.341 907.952 920.814 917.293 911.099 926.988C903.139 934.931 895.608 943.802 886.963 950.982C883.958 953.477 880.617 955.456 876.896 956.688C870.431 958.829 864.403 958.156 858.441 954.985C850.081 950.538 842.838 943.915 835.53 937.944L806.856 914.33L774.125 887.854C771.615 885.817 768.891 884.065 766.427 881.976L766.257 880.993C766.113 880.177 765.931 879.464 765.616 878.693C765 879.788 765.026 881.166 764.482 882.143C764.142 882.754 753.614 887.475 751.845 888.598C747.461 891.379 743.201 894.423 738.741 897.069C711.562 912.987 682.487 925.419 652.201 934.073C638.838 937.852 624.776 942.178 610.884 943.207C606.414 960.875 606.585 972.936 605.165 990.601C604.74 995.877 603.419 1001.04 602.896 1006.3C601.766 1017.68 601.323 1029.05 599.8 1040.41C598.881 1047.25 598.782 1054.49 596.633 1061.08C594.842 1066.57 590.661 1073.32 585.773 1076.67C585.205 1077.06 585.047 1077.02 584.41 1077.17C583.711 1077.35 583.018 1077.53 582.318 1077.7C581.986 1078.72 582.217 1078.99 582.475 1080L485.11 1080L484.243 1078.2C483.091 1077.52 482.011 1076.82 480.984 1075.96C477.631 1073.15 473.454 1069.29 471.854 1065.15C470.41 1061.41 469.958 1057.15 469.279 1053.21C468.272 1047.37 467.119 1041.46 466.462 1035.58C465.608 1027.92 465.373 1020.21 464.505 1012.55C462.985 999.138 460.77 985.785 459.168 972.396C458.15 963.893 457.815 955.156 457.136 946.605L453.883 943.137C444.64 942.087 436.087 939.97 427.082 937.724C391.648 928.888 359.148 914.559 327.963 895.587C322.45 892.233 315.081 888.728 310.303 884.559C309.239 883.631 308.794 882.414 307.712 881.514C306.796 880.752 306.212 881.216 305.359 881.798C294.736 889.049 284.91 897.637 274.972 905.771C263.343 915.288 251.371 924.408 239.73 933.913C231.759 940.421 223.34 948.465 214.621 953.845C211.089 955.977 207.143 957.33 203.046 957.815C189.712 959.32 179.339 947.791 170.577 939.472L154.356 923.854C150.849 920.47 146.955 917.66 143.228 914.542C139.744 911.628 125.15 896.647 123.451 893.638C121.524 890.224 120.63 886.298 120.344 882.413C119.984 877.524 121.273 872.324 123.517 867.966C125.331 864.444 127.901 861.11 130.149 857.852C138.675 845.494 148.556 834.393 157.626 822.486C169.726 806.6 180.955 789.556 194.034 774.459C193.989 773.277 193.913 772.102 193.837 770.922C193.596 767.17 189.05 761.897 187.087 758.664C182.586 751.248 177.566 743.568 173.717 735.812C171.961 732.273 170.584 728.513 168.929 724.915L167.146 724.353C165.716 722.774 165.53 718.901 164.537 716.78C161.365 710.006 157.997 703.406 155.164 696.47C148.5 680.155 143.557 663.054 139.024 646.045C136.737 637.46 134.231 629.614 133.83 620.66L132.857 620.302C122.096 616.281 106.96 617.918 95.4163 616.972C89.9056 616.521 84.6316 614.837 79.1043 614.329L37.7698 610.475C31.4498 609.937 25.0201 609.829 18.7337 609.023C12.8645 608.271 5.37034 603.72 1.88276 599.072C1.74355 598.886 1.61135 598.695 1.47565 598.507L0 598.428L0 490.493C5.3507 489.167 8.51115 483.533 14.0606 482.335C20.8942 480.86 28.7219 479.362 35.6724 478.685C44.7757 477.797 53.9343 477.666 63.0526 476.683C76.3763 475.247 89.5852 472.652 102.857 471.093C113.004 469.901 123.174 470.704 133.136 467.947C134.01 463.442 134.356 458.852 135.325 454.354C145.802 405.718 164.887 356.082 194.025 315.498C193.875 313.401 193.916 311.308 193.932 309.207C186.274 301.046 179.695 292.168 172.807 283.388C169.122 278.69 164.916 274.326 161.141 269.663C156.812 264.317 152.894 258.678 148.593 253.328C144.094 247.733 125.118 226.561 123.048 220.799C121.036 215.197 121.609 204.915 123.979 199.591C125.156 196.947 126.912 194.467 128.832 192.306C133.069 187.536 138.012 183.18 142.625 178.77L163.868 158.499C170.775 152.015 177.36 144.771 184.787 138.905C187.322 136.902 190.029 135.172 193.08 134.058C199.332 131.773 205.704 132.595 211.718 135.134C223.85 140.256 234.176 151.306 244.574 159.284C255.763 167.87 267.459 176.014 278.378 184.92C285.201 190.485 294.811 199.887 302.677 203.264C303.505 203.619 305.959 204.533 306.841 204.284C310.885 203.142 325.375 192.55 329.969 189.611C358.263 171.506 390.865 159.513 423.047 150.481C427.086 149.348 431.152 148.015 435.251 147.151C442.237 145.679 448.655 144.859 455.416 142.265C458.959 139.078 458.714 120.831 459.162 115.243C459.896 106.066 462.202 96.7902 463.368 87.6008C465.431 71.3309 466.634 55.0644 469.104 38.8361C469.877 33.7586 470.361 28.1165 472.164 23.285C474.04 18.2572 478.768 14.6356 482.711 11.2484ZM254.762 533.717C279.043 533.69 303.444 533.507 327.717 533.969C331.164 525.382 333.065 516.219 335.665 507.353C337.995 499.407 341.167 491.153 344.43 483.532C353.292 462.833 365.489 442.669 379.439 424.998C385.118 417.805 392.005 411.258 397.099 403.687C398.153 403.5 398.582 403.682 399.266 402.819C404.127 396.692 416.645 386.099 423.16 381.146C427.134 378.125 431.526 375.594 434.967 371.947C435.671 371.202 436.389 370.471 437.088 369.722C444.13 368.109 449.492 362.837 455.789 359.443C470.915 351.293 486.164 344.77 502.47 339.388C507.581 337.701 512.276 335.972 517.606 335.104C518.361 333.509 519.107 331.91 519.843 330.306C518.676 317.62 518.907 305.135 518.95 292.42L519.107 254.509C516.43 254.61 513.639 254.549 510.989 254.913C494.807 257.179 478.873 258.731 463.011 262.976C426.154 272.842 388.806 292.344 359.127 316.276C348.789 324.613 339.072 334.232 329.697 343.617C320.287 353.037 310.326 363.344 302.326 373.981C284.099 398.217 268.039 427.056 258.324 455.808C253.05 471.415 249.637 487.768 246.334 503.885C244.679 511.963 247.583 525.939 243.429 532.446C245.18 533.461 251.892 532.959 254.762 533.717Z"/><path d="M930.034 183.682C937.61 190.09 945.318 196.847 946.296 207.338C946.65 211.14 946.362 215.457 945.235 219.109C943.878 216.071 944.066 212.959 943.979 209.708C943.725 200.284 937.352 192.445 930.983 185.898C930.118 185.009 930.252 184.85 930.034 183.682Z"/></svg>